<?xml version="1.0" encoding="UTF-8"?>
<svg width="210mm" height="210mm" version="1.1" viewBox="0 0 210 210" xml:space="preserve" xmlns="http://www.w3.org/2000/svg">
  <g transform="matrix(.68871 0 0 .71298 32.685 30.138)">
    <g transform="matrix(2.5254 0 0 2.5254 -137.34 -80.212)">
      <path d="m71.693 51.947-0.0074 29.582c3.6358 13.472 12.552 20.154 23.915 23.689 10.33-3.3699 20.458-7.1975 24.791-24.201l0.0588-29.863c-9.0909-1.1425-16.996-4.9599-24.534-9.6039-7.2217 4.6892-15.274 8.1865-24.223 10.396z" fill="#dae9f2" />
      <ellipse cx="95.545" cy="71.83" rx="14.924" ry="14.644" fill="#f5f8fa" />
      <path d="m95.962 106.79c-0.6446 0-1.2892-0.10186-1.9026-0.30483-14.562-4.8371-23.971-16.383-23.971-29.416v-23.634c0-2.0208 1.4394-3.7494 3.4222-4.1107v0c7.6816-1.397 14.38-4.2824 19.907-8.5753 1.4974-1.1628 3.5895-1.1628 5.0876 0 5.5278 4.2928 12.224 7.1783 19.907 8.5753 1.9821 0.36059 3.4215 2.0899 3.4215 4.1107v23.634c0 13.033-9.408 24.58-23.968 29.416-0.61411 0.20297-1.2587 0.30483-1.9033 0.30483zm-21.919-54.539c-0.56802 0.10334-0.9799 0.60148-0.9799 1.1844v23.634c0 11.729 8.6095 22.168 21.933 26.594 0.62229 0.20743 1.3085 0.20595 1.933 0 13.322-4.4252 21.931-14.864 21.931-26.594v-23.634c0-0.58289-0.41263-1.0818-0.9799-1.1844-8.1574-1.484-15.289-4.5635-21.198-9.1522-0.42378-0.32787-1.0156-0.32862-1.4401 0-5.9092 4.5888-13.041 7.6682-21.199 9.1522z" fill="#003554" stroke-linecap="round" />
      <g transform="matrix(.50377 0 0 .50377 13.907 21.721)" fill="#003554" stroke-linecap="round">
        <path d="m163.15 131.65c-2.8899 0-5.8252-0.39925-8.7381-1.2394-16.733-4.8267-26.421-22.366-21.596-39.099 2.3375-8.1062 7.692-14.818 15.076-18.896 7.385-4.0795 15.916-5.0393 24.022-2.7003 1.1836 0.34126 1.8669 1.5777 1.5256 2.7613s-1.5769 1.8661-2.7613 1.5249c-6.9619-2.0066-14.287-1.1836-20.629 2.3189-6.3419 3.5025-10.94 9.266-12.947 16.227-4.1434 14.369 4.1761 29.432 18.546 33.576 14.369 4.1442 29.432-4.1769 33.576-18.546 0.34125-1.1836 1.5762-1.8676 2.7613-1.5256 1.1836 0.34125 1.8669 1.5777 1.5256 2.7613-3.9865 13.821-16.647 22.837-30.361 22.837z" />
        <path d="m177.72 76.798c-0.3762 0-0.75835-0.09517-1.1078-0.2959l-0.29591-0.16654c-1.078-0.59627-1.4684-1.9539-0.8721-3.0319 0.59701-1.0773 1.9539-1.4691 3.0312-0.87136l0.35687 0.20074c1.0691 0.61337 1.4379 1.9762 0.82377 3.0445-0.41114 0.7182-1.1628 1.1204-1.936 1.1204z" />
        <path d="m191.84 96c-1.026 0-1.9487-0.71151-2.1769-1.7546-0.0483-0.2223-0.10111-0.44386-0.15539-0.66393-0.2959-1.1955 0.43271-2.4052 1.629-2.7018 1.1985-0.2959 2.4052 0.43345 2.7018 1.629 0.0647 0.26022 0.12565 0.52118 0.1829 0.78363 0.26319 1.2037-0.49962 2.3925-1.7026 2.655-0.16134 0.03643-0.32119 0.05279-0.4788 0.05279zm-2.8379-7.6407c-0.79404 0-1.5628-0.42453-1.9658-1.1725-0.10855-0.20074-0.21933-0.39999-0.33234-0.59776-0.61337-1.0684-0.2446-2.4319 0.82303-3.0453 1.0676-0.61337 2.4319-0.24535 3.0453 0.82303 0.13382 0.23271 0.26393 0.46616 0.39032 0.70184 0.58438 1.0847 0.17918 2.4379-0.90481 3.0222-0.33605 0.18215-0.69813 0.2684-1.0557 0.2684zm-4.8282-6.5724c-0.5814 0-1.1628-0.22602-1.5992-0.67657-0.1591-0.16282-0.31895-0.32341-0.48177-0.48252-0.88326-0.85872-0.90184-2.2713-0.0424-3.1538 0.85872-0.88325 2.2721-0.90184 3.1538-0.04238 0.19256 0.18736 0.38289 0.37769 0.5695 0.57025 0.85872 0.884 0.8379 2.2959-0.0454 3.1538-0.43419 0.4223-0.99478 0.63121-1.5546 0.63121z" />
        <path d="m192.49 103.76c-0.0402 0-0.0796-7.5e-4 -0.11971-3e-3 -1.2304-0.0654-2.1747-1.1152-2.11-2.3449l0.0156-0.33159c0.0431-1.2319 1.0721-2.2074 2.3078-2.1509 1.2312 0.04387 2.194 1.0766 2.1509 2.3078l-0.0178 0.4104c-0.0647 1.1896-1.049 2.1122-2.2267 2.1122z" />
        <path d="m166.41 77.515c-0.41635 0-0.83195-0.11598-1.1985-0.34944-0.76058-0.48475-1.1546-1.3806-0.99775-2.2684l1.4661-8.3151c0.15613-0.88846 0.8327-1.5955 1.7137-1.7903 0.88474-0.19702 1.7933 0.15985 2.31 0.89812l3.4245 4.8906c0.70705 1.0096 0.4617 2.4-0.5472 3.1063l-4.8906 3.4245c-0.38438 0.26914-0.8327 0.40371-1.2803 0.40371z" />
      </g>
      <path d="m88.75 69.738c-0.62823 0.72528-1.0266 1.8444-0.0843 3.0595l4.6977 4.6109c1.4799 1.0962 2.4348 0.75797 3.4272-0.09651l6.634-6.6297c0.67097-0.84098 0.98401-1.7671 0.2439-2.9435l-1.724-1.804c-1.0004-0.64847-2.0465-1.0445-3.403 0.27478l-3.5056 3.5103-1.568-1.5723c-1.5088-1.1273-2.4794-0.6909-3.3229 0.14453z" fill="#003554" />
    </g>
  </g>
</svg>