<svg xmlns:xlink="http://www.w3.org/1999/xlink" width="384" xmlns="http://www.w3.org/2000/svg" height="854" id="screenshot-904dd837-41e5-80a7-8002-2451f1bbe7bd" viewBox="0 0 384 854" style="-webkit-print-color-adjust: exact;" fill="none" version="1.1"><g id="shape-904dd837-41e5-80a7-8002-2451f1bbe7bd"><defs><clipPath class="frame-clip-def frame-clip" id="frame-clip-904dd837-41e5-80a7-8002-2451f1bbe7bd-rumext-id-1"><rect rx="0" ry="0" x="0" y="0" width="384" height="854" transform="matrix(1.000000, 0.000000, 0.000000, 1.000000, 0.000000, 0.000000)" style="fill: rgb(0, 53, 84); fill-opacity: 1;"/></clipPath></defs><g clip-path="url(#frame-clip-904dd837-41e5-80a7-8002-2451f1bbe7bd-rumext-id-1)"><clipPath class="frame-clip-def frame-clip" id="frame-clip-904dd837-41e5-80a7-8002-2451f1bbe7bd-rumext-id-1"><rect rx="0" ry="0" x="0" y="0" width="384" height="854" transform="matrix(1.000000, 0.000000, 0.000000, 1.000000, 0.000000, 0.000000)" style="fill: rgb(0, 53, 84); fill-opacity: 1;"/></clipPath><g class="fills" id="fills-904dd837-41e5-80a7-8002-2451f1bbe7bd"><rect width="384" height="854" class="frame-background" x="0" transform="matrix(1.000000, 0.000000, 0.000000, 1.000000, 0.000000, 0.000000)" style="fill: rgb(0, 53, 84); fill-opacity: 1;" ry="0" rx="0" y="0"/></g><g class="frame-children"><g id="shape-904dd837-41e5-80a7-8002-2452797745cd" xml:space="preserve" width="210mm" version="1.1" height="210mm" rx="0" ry="0" style="opacity: 0.15; fill: rgb(0, 0, 0);"><g id="shape-904dd837-41e5-80a7-8002-245279779eed"><defs id="defs2" rx="0" ry="0" style="fill: rgb(0, 0, 0);"/></g><g id="shape-904dd837-41e5-80a7-8002-245279779eee" rx="0" ry="0" style="fill: rgb(0, 0, 0);"><g id="shape-904dd837-41e5-80a7-8002-24527977e3be" rx="0" ry="0" style="fill: rgb(0, 0, 0);"><g id="shape-904dd837-41e5-80a7-8002-245279792673"><g class="fills" id="fills-904dd837-41e5-80a7-8002-245279792673"><path stroke-linecap="round" rx="0" ry="0" d="M19.145,920.846C13.566,919.522,8.205,917.278,3.331,914.186C-112.336,840.613,-169.031,717.073,-141.109,599.442L-90.477,386.135C-86.148,367.896,-69.987,355.252,-52.051,356.064L-52.051,356.064C17.425,359.236,81.577,346.954,138.609,319.563C154.060,312.144,172.167,316.443,182.642,330.015C221.287,380.117,273.063,419.916,336.559,448.307C352.942,455.634,361.695,474.199,357.365,492.438L306.733,705.745C278.811,823.376,172.649,908.267,36.271,922.005C30.521,922.575,24.724,922.170,19.145,920.846ZZM-53.713,383.569C-58.851,383.335,-63.483,386.985,-64.732,392.246L-115.364,605.553C-140.492,711.415,-88.342,823.321,17.485,890.638C22.427,893.789,28.369,895.185,34.216,894.609C158.999,882.039,255.871,805.505,281.001,699.637L331.633,486.330C332.882,481.069,330.379,475.719,325.689,473.627C258.267,443.475,203.143,401.030,161.831,347.475C158.865,343.645,153.745,342.422,149.367,344.516C88.393,373.792,20.067,386.934,-53.713,383.569ZZ" style="stroke-dasharray: none; fill-rule: nonzero; stroke: none; stroke-linejoin: miter; stroke-miterlimit: 10; fill: rgb(255, 255, 255); fill-opacity: 1;"/></g><g id="strokes-904dd837-41e5-80a7-8002-245279792673" class="strokes"><g class="stroke-shape"><path stroke-linecap="round" rx="0" ry="0" d="M19.145,920.846C13.566,919.522,8.205,917.278,3.331,914.186C-112.336,840.613,-169.031,717.073,-141.109,599.442L-90.477,386.135C-86.148,367.896,-69.987,355.252,-52.051,356.064L-52.051,356.064C17.425,359.236,81.577,346.954,138.609,319.563C154.060,312.144,172.167,316.443,182.642,330.015C221.287,380.117,273.063,419.916,336.559,448.307C352.942,455.634,361.695,474.199,357.365,492.438L306.733,705.745C278.811,823.376,172.649,908.267,36.271,922.005C30.521,922.575,24.724,922.170,19.145,920.846ZZM-53.713,383.569C-58.851,383.335,-63.483,386.985,-64.732,392.246L-115.364,605.553C-140.492,711.415,-88.342,823.321,17.485,890.638C22.427,893.789,28.369,895.185,34.216,894.609C158.999,882.039,255.871,805.505,281.001,699.637L331.633,486.330C332.882,481.069,330.379,475.719,325.689,473.627C258.267,443.475,203.143,401.030,161.831,347.475C158.865,343.645,153.745,342.422,149.367,344.516C88.393,373.792,20.067,386.934,-53.713,383.569ZZ" style="stroke-dasharray: none; fill-rule: nonzero; stroke: none; stroke-linejoin: miter; stroke-miterlimit: 10; fill: none; stroke-width: 0.743479; stroke-opacity: 1;"/></g></g></g><g id="shape-904dd837-41e5-80a7-8002-245279796ac6" rx="0" ry="0" style="stroke: none; fill: rgb(255, 255, 255); fill-opacity: 1;"><g id="shape-904dd837-41e5-80a7-8002-2452797a90f3"><g class="fills" id="fills-904dd837-41e5-80a7-8002-2452797a90f3"><path stroke-linecap="round" rx="0" ry="0" d="M60.494,751.877C47.894,748.886,35.527,744.033,23.733,737.198C-44.017,697.934,-67.325,608.160,-28.228,537.074C-9.288,502.636,21.301,477.662,57.899,466.759C94.501,455.853,132.731,460.318,165.550,479.342C170.342,482.119,171.987,488.448,169.221,493.476C166.456,498.505,160.332,500.329,155.536,497.552C127.347,481.223,94.520,477.383,63.089,486.745C31.657,496.107,5.391,517.554,-10.874,547.128C-44.448,608.174,-24.431,685.272,33.750,718.986C91.928,752.700,166.584,730.455,200.161,669.410C202.926,664.381,209.048,662.550,213.846,665.331C218.639,668.108,220.283,674.436,217.518,679.465C185.220,738.182,120.289,766.070,60.494,751.877ZZ" style="stroke-dasharray: none; fill-rule: nonzero; stroke: none; stroke-linejoin: miter; stroke-miterlimit: 10; fill: rgb(255, 255, 255); fill-opacity: 1;"/></g><g id="strokes-904dd837-41e5-80a7-8002-2452797a90f3" class="strokes"><g class="stroke-shape"><path stroke-linecap="round" rx="0" ry="0" d="M60.494,751.877C47.894,748.886,35.527,744.033,23.733,737.198C-44.017,697.934,-67.325,608.160,-28.228,537.074C-9.288,502.636,21.301,477.662,57.899,466.759C94.501,455.853,132.731,460.318,165.550,479.342C170.342,482.119,171.987,488.448,169.221,493.476C166.456,498.505,160.332,500.329,155.536,497.552C127.347,481.223,94.520,477.383,63.089,486.745C31.657,496.107,5.391,517.554,-10.874,547.128C-44.448,608.174,-24.431,685.272,33.750,718.986C91.928,752.700,166.584,730.455,200.161,669.410C202.926,664.381,209.048,662.550,213.846,665.331C218.639,668.108,220.283,674.436,217.518,679.465C185.220,738.182,120.289,766.070,60.494,751.877ZZ" style="stroke-dasharray: none; fill-rule: nonzero; stroke: none; stroke-linejoin: miter; stroke-miterlimit: 10; fill: none; stroke-width: 0.743479; stroke-opacity: 1;"/></g></g></g><g id="shape-904dd837-41e5-80a7-8002-2452797b4258"><g class="fills" id="fills-904dd837-41e5-80a7-8002-2452797b4258"><path stroke-linecap="round" rx="0" ry="0" d="M183.211,517.544C181.571,517.155,180.008,516.326,178.701,515.052L177.590,513.989C173.534,510.162,173.297,503.585,177.060,499.301C180.826,495.020,187.165,494.643,191.217,498.476L192.556,499.758C196.555,503.653,196.692,510.231,192.862,514.453C190.294,517.293,186.583,518.344,183.211,517.544ZZ" style="stroke-dasharray: none; fill-rule: nonzero; stroke: none; stroke-linejoin: miter; stroke-miterlimit: 10; fill: rgb(255, 255, 255); fill-opacity: 1;"/></g><g id="strokes-904dd837-41e5-80a7-8002-2452797b4258" class="strokes"><g class="stroke-shape"><path stroke-linecap="round" rx="0" ry="0" d="M183.211,517.544C181.571,517.155,180.008,516.326,178.701,515.052L177.590,513.989C173.534,510.162,173.297,503.585,177.060,499.301C180.826,495.020,187.165,494.643,191.217,498.476L192.556,499.758C196.555,503.653,196.692,510.231,192.862,514.453C190.294,517.293,186.583,518.344,183.211,517.544ZZ" style="stroke-dasharray: none; fill-rule: nonzero; stroke: none; stroke-linejoin: miter; stroke-miterlimit: 10; fill: none; stroke-width: 0.743479; stroke-opacity: 1;"/></g></g></g><g id="shape-904dd837-41e5-80a7-8002-2452797c53aa"><g class="fills" id="fills-904dd837-41e5-80a7-8002-2452797c53aa"><path stroke-linecap="round" rx="0" ry="0" d="M224.052,619.464C219.579,618.402,216.324,614.212,216.455,609.233C216.484,608.173,216.493,607.111,216.494,606.054C216.494,600.312,220.976,595.566,226.512,595.455C232.057,595.350,236.531,599.915,236.534,605.658C236.535,606.908,236.519,608.158,236.486,609.410C236.334,615.155,231.725,619.771,226.197,619.720C225.454,619.718,224.739,619.627,224.052,619.464ZZM219.925,581.786C216.463,580.964,213.570,578.239,212.620,574.421C212.363,573.396,212.095,572.375,211.816,571.359C210.295,565.867,213.374,560.048,218.691,558.365C224.008,556.681,229.559,559.766,231.081,565.258C231.413,566.455,231.728,567.651,232.025,568.853C233.402,574.390,230.175,580.123,224.818,581.659C223.156,582.139,221.485,582.156,219.925,581.786ZZM205.968,546.906C203.433,546.305,201.142,544.675,199.725,542.175C199.207,541.270,198.684,540.374,198.145,539.482C195.221,534.664,196.665,528.222,201.364,525.099C206.062,521.971,212.244,523.350,215.161,528.170C215.798,529.221,216.423,530.284,217.029,531.352C219.819,536.260,218.204,542.658,213.427,545.645C211.078,547.116,208.408,547.486,205.968,546.906ZZ" style="stroke-dasharray: none; fill-rule: nonzero; stroke: none; stroke-linejoin: miter; stroke-miterlimit: 10; fill: rgb(255, 255, 255); fill-opacity: 1;"/></g><g id="strokes-904dd837-41e5-80a7-8002-2452797c53aa" class="strokes"><g class="stroke-shape"><path stroke-linecap="round" rx="0" ry="0" d="M224.052,619.464C219.579,618.402,216.324,614.212,216.455,609.233C216.484,608.173,216.493,607.111,216.494,606.054C216.494,600.312,220.976,595.566,226.512,595.455C232.057,595.350,236.531,599.915,236.534,605.658C236.535,606.908,236.519,608.158,236.486,609.410C236.334,615.155,231.725,619.771,226.197,619.720C225.454,619.718,224.739,619.627,224.052,619.464ZZM219.925,581.786C216.463,580.964,213.570,578.239,212.620,574.421C212.363,573.396,212.095,572.375,211.816,571.359C210.295,565.867,213.374,560.048,218.691,558.365C224.008,556.681,229.559,559.766,231.081,565.258C231.413,566.455,231.728,567.651,232.025,568.853C233.402,574.390,230.175,580.123,224.818,581.659C223.156,582.139,221.485,582.156,219.925,581.786ZZM205.968,546.906C203.433,546.305,201.142,544.675,199.725,542.175C199.207,541.270,198.684,540.374,198.145,539.482C195.221,534.664,196.665,528.222,201.364,525.099C206.062,521.971,212.244,523.350,215.161,528.170C215.798,529.221,216.423,530.284,217.029,531.352C219.819,536.260,218.204,542.658,213.427,545.645C211.078,547.116,208.408,547.486,205.968,546.906ZZ" style="stroke-dasharray: none; fill-rule: nonzero; stroke: none; stroke-linejoin: miter; stroke-miterlimit: 10; fill: none; stroke-width: 0.743479; stroke-opacity: 1;"/></g></g></g><g id="shape-904dd837-41e5-80a7-8002-2452797caf9b"><g class="fills" id="fills-904dd837-41e5-80a7-8002-2452797caf9b"><path stroke-linecap="round" rx="0" ry="0" d="M218.520,655.406C218.345,655.365,218.174,655.321,218.002,655.269C212.708,653.698,209.724,647.948,211.333,642.423L211.759,640.932C213.276,635.375,218.816,632.005,224.142,633.540C229.463,635.014,232.546,640.706,231.029,646.259L230.509,648.107C228.943,653.449,223.655,656.625,218.520,655.406ZZ" style="stroke-dasharray: none; fill-rule: nonzero; stroke: none; stroke-linejoin: miter; stroke-miterlimit: 10; fill: rgb(255, 255, 255); fill-opacity: 1;"/></g><g id="strokes-904dd837-41e5-80a7-8002-2452797caf9b" class="strokes"><g class="stroke-shape"><path stroke-linecap="round" rx="0" ry="0" d="M218.520,655.406C218.345,655.365,218.174,655.321,218.002,655.269C212.708,653.698,209.724,647.948,211.333,642.423L211.759,640.932C213.276,635.375,218.816,632.005,224.142,633.540C229.463,635.014,232.546,640.706,231.029,646.259L230.509,648.107C228.943,653.449,223.655,656.625,218.520,655.406ZZ" style="stroke-dasharray: none; fill-rule: nonzero; stroke: none; stroke-linejoin: miter; stroke-miterlimit: 10; fill: none; stroke-width: 0.743479; stroke-opacity: 1;"/></g></g></g><g id="shape-904dd837-41e5-80a7-8002-2452797d0374"><g class="fills" id="fills-904dd837-41e5-80a7-8002-2452797d0374"><path stroke-linecap="round" rx="0" ry="0" d="M133.120,509.096C131.305,508.665,129.618,507.708,128.272,506.267C125.479,503.276,124.728,498.795,126.370,494.921L141.736,458.631C143.376,454.753,147.089,452.239,151.140,452.265C155.210,452.284,158.787,454.847,160.243,458.739L169.895,484.520C171.888,489.842,169.318,495.909,164.157,498.077L139.138,508.586C137.171,509.412,135.072,509.559,133.120,509.096ZZ" style="stroke-dasharray: none; fill-rule: nonzero; stroke: none; stroke-linejoin: miter; stroke-miterlimit: 10; fill: rgb(255, 255, 255); fill-opacity: 1;"/></g><g id="strokes-904dd837-41e5-80a7-8002-2452797d0374" class="strokes"><g class="stroke-shape"><path stroke-linecap="round" rx="0" ry="0" d="M133.120,509.096C131.305,508.665,129.618,507.708,128.272,506.267C125.479,503.276,124.728,498.795,126.370,494.921L141.736,458.631C143.376,454.753,147.089,452.239,151.140,452.265C155.210,452.284,158.787,454.847,160.243,458.739L169.895,484.520C171.888,489.842,169.318,495.909,164.157,498.077L139.138,508.586C137.171,509.412,135.072,509.559,133.120,509.096ZZ" style="stroke-dasharray: none; fill-rule: nonzero; stroke: none; stroke-linejoin: miter; stroke-miterlimit: 10; fill: none; stroke-width: 0.743479; stroke-opacity: 1;"/></g></g></g></g><g id="shape-904dd837-41e5-80a7-8002-2452797d570c"><g class="fills" id="fills-904dd837-41e5-80a7-8002-2452797d570c"><path rx="0" ry="0" d="M36.115,571.574C29.124,576.829,23.279,586.111,28.831,599.014L59.611,650.281C70.070,663.215,79.059,662.124,89.480,656.451L161.099,610.243C168.708,604.031,173.401,596.316,169.516,584.177L158.460,564.354C151.191,556.446,142.986,550.723,128.418,559.843L90.558,584.323L80.355,566.911C69.712,553.637,60.377,555.582,51.287,561.389Z" style="stroke: none; stroke-linejoin: round; fill: rgb(255, 255, 255); fill-opacity: 1;"/></g><g id="strokes-904dd837-41e5-80a7-8002-2452797d570c" class="strokes"><g class="stroke-shape"><path rx="0" ry="0" d="M36.115,571.574C29.124,576.829,23.279,586.111,28.831,599.014L59.611,650.281C70.070,663.215,79.059,662.124,89.480,656.451L161.099,610.243C168.708,604.031,173.401,596.316,169.516,584.177L158.460,564.354C151.191,556.446,142.986,550.723,128.418,559.843L90.558,584.323L80.355,566.911C69.712,553.637,60.377,555.582,51.287,561.389Z" style="stroke: none; stroke-linejoin: round; fill: none; stroke-width: 0.520811; stroke-opacity: 1;"/></g></g></g></g></g></g></g></g></g></svg>